<mxfile host="app.diagrams.net" modified="2024-06-14T04:20:31.019Z" agent="Mozilla/5.0 (Windows NT 10.0; Win64; x64) AppleWebKit/537.36 (KHTML, like Gecko) Chrome/125.0.0.0 Safari/537.36" etag="YBH-dDoJ4jcFJ1KHs6n5" version="24.5.4" type="onedrive">
  <diagram name="Halaman-1" id="zo9XZ7gX42pZGgkoW74U">
    <mxGraphModel grid="1" page="1" gridSize="10" guides="1" tooltips="1" connect="1" arrows="1" fold="1" pageScale="1" pageWidth="827" pageHeight="1169" math="0" shadow="0">
      <root>
        <mxCell id="0" />
        <mxCell id="1" parent="0" />
        <mxCell id="DBNzlo6PX5rQ8HiWXFC5-3" value="" style="edgeStyle=orthogonalEdgeStyle;rounded=0;orthogonalLoop=1;jettySize=auto;html=1;" edge="1" parent="1" source="DBNzlo6PX5rQ8HiWXFC5-1" target="DBNzlo6PX5rQ8HiWXFC5-2">
          <mxGeometry relative="1" as="geometry" />
        </mxCell>
        <mxCell id="DBNzlo6PX5rQ8HiWXFC5-1" value="pengguna" style="rounded=0;whiteSpace=wrap;html=1;" vertex="1" parent="1">
          <mxGeometry x="40" y="40" width="120" height="60" as="geometry" />
        </mxCell>
        <mxCell id="DBNzlo6PX5rQ8HiWXFC5-7" value="" style="edgeStyle=orthogonalEdgeStyle;rounded=0;orthogonalLoop=1;jettySize=auto;html=1;" edge="1" parent="1" source="DBNzlo6PX5rQ8HiWXFC5-2" target="DBNzlo6PX5rQ8HiWXFC5-6">
          <mxGeometry relative="1" as="geometry" />
        </mxCell>
        <mxCell id="DBNzlo6PX5rQ8HiWXFC5-2" value="tahap awal fungsi" style="ellipse;whiteSpace=wrap;html=1;aspect=fixed;" vertex="1" parent="1">
          <mxGeometry x="240" y="30" width="80" height="80" as="geometry" />
        </mxCell>
        <mxCell id="DBNzlo6PX5rQ8HiWXFC5-4" value="- data pasien&lt;div&gt;- jumlah pasien&lt;/div&gt;&lt;div&gt;- nama pasien yang mau dicari&lt;/div&gt;" style="text;html=1;align=center;verticalAlign=middle;whiteSpace=wrap;rounded=0;" vertex="1" parent="1">
          <mxGeometry x="160" y="10" width="80" height="30" as="geometry" />
        </mxCell>
        <mxCell id="DBNzlo6PX5rQ8HiWXFC5-10" value="" style="edgeStyle=orthogonalEdgeStyle;rounded=0;orthogonalLoop=1;jettySize=auto;html=1;" edge="1" parent="1" source="DBNzlo6PX5rQ8HiWXFC5-6" target="DBNzlo6PX5rQ8HiWXFC5-9">
          <mxGeometry relative="1" as="geometry" />
        </mxCell>
        <mxCell id="DBNzlo6PX5rQ8HiWXFC5-6" value="iterasi array" style="ellipse;whiteSpace=wrap;html=1;aspect=fixed;" vertex="1" parent="1">
          <mxGeometry x="400" y="30" width="80" height="80" as="geometry" />
        </mxCell>
        <mxCell id="DBNzlo6PX5rQ8HiWXFC5-8" value="- data pasien&lt;div&gt;- jumlah pasien&lt;/div&gt;&lt;div&gt;- nama pasien yang mau dicari&lt;/div&gt;" style="text;html=1;align=center;verticalAlign=middle;whiteSpace=wrap;rounded=0;" vertex="1" parent="1">
          <mxGeometry x="320" y="10" width="80" height="30" as="geometry" />
        </mxCell>
        <mxCell id="DBNzlo6PX5rQ8HiWXFC5-12" style="edgeStyle=orthogonalEdgeStyle;rounded=0;orthogonalLoop=1;jettySize=auto;html=1;entryX=0.5;entryY=1;entryDx=0;entryDy=0;" edge="1" parent="1" source="DBNzlo6PX5rQ8HiWXFC5-9" target="DBNzlo6PX5rQ8HiWXFC5-1">
          <mxGeometry relative="1" as="geometry">
            <Array as="points">
              <mxPoint x="600" y="130" />
              <mxPoint x="100" y="130" />
            </Array>
          </mxGeometry>
        </mxCell>
        <mxCell id="DBNzlo6PX5rQ8HiWXFC5-9" value="pencarian data pasien" style="ellipse;whiteSpace=wrap;html=1;aspect=fixed;" vertex="1" parent="1">
          <mxGeometry x="560" y="30" width="80" height="80" as="geometry" />
        </mxCell>
        <mxCell id="DBNzlo6PX5rQ8HiWXFC5-11" value="- data pasien&lt;div&gt;- jumlah pasien&lt;/div&gt;&lt;div&gt;- nama pasien yang mau dicari&lt;/div&gt;" style="text;html=1;align=center;verticalAlign=middle;whiteSpace=wrap;rounded=0;" vertex="1" parent="1">
          <mxGeometry x="480" y="10" width="80" height="30" as="geometry" />
        </mxCell>
        <mxCell id="DBNzlo6PX5rQ8HiWXFC5-13" value="data pasien ditemukan/data pasien tidak ditemukan" style="text;html=1;align=center;verticalAlign=middle;whiteSpace=wrap;rounded=0;" vertex="1" parent="1">
          <mxGeometry x="100" y="130" width="480" height="30" as="geometry" />
        </mxCell>
      </root>
    </mxGraphModel>
  </diagram>
</mxfile>
